<mxfile host="65bd71144e">
    <diagram id="RNtxc-_7A5Zu7MBtFjHn" name="第 1 页">
        <mxGraphModel dx="1191" dy="713" grid="0" gridSize="10" guides="1" tooltips="1" connect="1" arrows="1" fold="1" page="1" pageScale="1" pageWidth="827" pageHeight="1169" background="none" math="0" shadow="0">
            <root>
                <mxCell id="0"/>
                <mxCell id="1" parent="0"/>
                <mxCell id="2" value="" style="verticalLabelPosition=bottom;html=1;verticalAlign=top;align=center;strokeColor=none;fillColor=#00BEF2;shape=mxgraph.azure.computer;pointerEvents=1;rounded=0;" parent="1" vertex="1">
                    <mxGeometry x="185" y="55" width="50" height="45" as="geometry"/>
                </mxCell>
                <mxCell id="5" value="" style="endArrow=none;html=1;entryX=0.5;entryY=1;entryDx=0;entryDy=0;entryPerimeter=0;rounded=0;" parent="1" target="2" edge="1">
                    <mxGeometry width="50" height="50" relative="1" as="geometry">
                        <mxPoint x="210" y="930" as="sourcePoint"/>
                        <mxPoint x="224" y="107" as="targetPoint"/>
                    </mxGeometry>
                </mxCell>
                <mxCell id="6" value="" style="verticalLabelPosition=bottom;html=1;verticalAlign=top;align=center;strokeColor=none;fillColor=#00BEF2;shape=mxgraph.azure.computer;pointerEvents=1;rounded=0;" parent="1" vertex="1">
                    <mxGeometry x="402" y="55" width="50" height="45" as="geometry"/>
                </mxCell>
                <mxCell id="7" value="" style="endArrow=none;html=1;entryX=0.5;entryY=1;entryDx=0;entryDy=0;entryPerimeter=0;startArrow=none;rounded=0;" parent="1" source="10" target="6" edge="1">
                    <mxGeometry width="50" height="50" relative="1" as="geometry">
                        <mxPoint x="427" y="628" as="sourcePoint"/>
                        <mxPoint x="441" y="107" as="targetPoint"/>
                    </mxGeometry>
                </mxCell>
                <mxCell id="8" value="" style="verticalLabelPosition=bottom;html=1;verticalAlign=top;align=center;strokeColor=none;fillColor=#00BEF2;shape=mxgraph.azure.computer;pointerEvents=1;rounded=0;" parent="1" vertex="1">
                    <mxGeometry x="638" y="55" width="50" height="45" as="geometry"/>
                </mxCell>
                <mxCell id="9" value="" style="endArrow=none;html=1;entryX=0.5;entryY=1;entryDx=0;entryDy=0;entryPerimeter=0;rounded=0;startArrow=none;" parent="1" source="18" target="8" edge="1">
                    <mxGeometry width="50" height="50" relative="1" as="geometry">
                        <mxPoint x="663" y="832" as="sourcePoint"/>
                        <mxPoint x="677" y="107" as="targetPoint"/>
                    </mxGeometry>
                </mxCell>
                <mxCell id="11" value="INVENTORY_Block_Hash" style="html=1;verticalAlign=bottom;startArrow=oval;endArrow=block;startSize=8;rounded=0;entryX=-0.021;entryY=0.029;entryDx=0;entryDy=0;entryPerimeter=0;" parent="1" target="23" edge="1">
                    <mxGeometry relative="1" as="geometry">
                        <mxPoint x="219" y="183" as="sourcePoint"/>
                    </mxGeometry>
                </mxCell>
                <mxCell id="10" value="" style="html=1;points=[];perimeter=orthogonalPerimeter;rounded=0;" parent="1" vertex="1">
                    <mxGeometry x="422" y="148" width="10" height="344" as="geometry"/>
                </mxCell>
                <mxCell id="12" value="" style="endArrow=none;html=1;entryX=0.5;entryY=1;entryDx=0;entryDy=0;entryPerimeter=0;rounded=0;" parent="1" target="10" edge="1">
                    <mxGeometry width="50" height="50" relative="1" as="geometry">
                        <mxPoint x="427" y="931" as="sourcePoint"/>
                        <mxPoint x="427" y="100" as="targetPoint"/>
                    </mxGeometry>
                </mxCell>
                <mxCell id="13" value="SR-1" style="text;html=1;align=center;verticalAlign=middle;resizable=0;points=[];autosize=1;strokeColor=none;fillColor=none;" parent="1" vertex="1">
                    <mxGeometry x="191" y="26" width="38" height="18" as="geometry"/>
                </mxCell>
                <mxCell id="14" value="SR-2" style="text;html=1;align=center;verticalAlign=middle;resizable=0;points=[];autosize=1;strokeColor=none;fillColor=none;" parent="1" vertex="1">
                    <mxGeometry x="409" y="28" width="38" height="18" as="geometry"/>
                </mxCell>
                <mxCell id="15" value="FullNode" style="text;html=1;align=center;verticalAlign=middle;resizable=0;points=[];autosize=1;strokeColor=none;fillColor=none;" parent="1" vertex="1">
                    <mxGeometry x="634" y="28" width="58" height="18" as="geometry"/>
                </mxCell>
                <mxCell id="16" value="Produce_block" style="html=1;verticalAlign=bottom;startArrow=oval;startFill=1;endArrow=block;startSize=8;" parent="1" edge="1">
                    <mxGeometry width="60" relative="1" as="geometry">
                        <mxPoint x="95" y="160" as="sourcePoint"/>
                        <mxPoint x="207" y="160" as="targetPoint"/>
                    </mxGeometry>
                </mxCell>
                <mxCell id="17" value="" style="html=1;points=[];perimeter=orthogonalPerimeter;" parent="1" vertex="1">
                    <mxGeometry x="205" y="145" width="10" height="342" as="geometry"/>
                </mxCell>
                <mxCell id="19" value="INVENTORY_Block_Hash" style="html=1;verticalAlign=bottom;startArrow=oval;endArrow=block;startSize=8;entryX=-0.243;entryY=0.087;entryDx=0;entryDy=0;entryPerimeter=0;" parent="1" target="27" edge="1">
                    <mxGeometry x="-0.5339" relative="1" as="geometry">
                        <mxPoint x="218" y="225" as="sourcePoint"/>
                        <mxPoint as="offset"/>
                    </mxGeometry>
                </mxCell>
                <mxCell id="18" value="" style="html=1;points=[];perimeter=orthogonalPerimeter;" parent="1" vertex="1">
                    <mxGeometry x="658" y="157" width="10" height="323" as="geometry"/>
                </mxCell>
                <mxCell id="20" value="" style="endArrow=none;html=1;entryX=0.5;entryY=1;entryDx=0;entryDy=0;entryPerimeter=0;rounded=0;" parent="1" target="18" edge="1">
                    <mxGeometry width="50" height="50" relative="1" as="geometry">
                        <mxPoint x="663" y="928" as="sourcePoint"/>
                        <mxPoint x="663" y="100" as="targetPoint"/>
                    </mxGeometry>
                </mxCell>
                <mxCell id="21" value="FETCH_INV_DATA (block)" style="html=1;verticalAlign=bottom;endArrow=open;dashed=1;endSize=8;" parent="1" edge="1">
                    <mxGeometry relative="1" as="geometry">
                        <mxPoint x="419" y="270" as="sourcePoint"/>
                        <mxPoint x="217" y="270" as="targetPoint"/>
                    </mxGeometry>
                </mxCell>
                <mxCell id="22" value="FETCH_INV_DATA (block)" style="html=1;verticalAlign=bottom;endArrow=open;dashed=1;endSize=8;exitX=-0.243;exitY=0.939;exitDx=0;exitDy=0;exitPerimeter=0;" parent="1" edge="1">
                    <mxGeometry x="-0.497" relative="1" as="geometry">
                        <mxPoint x="650.5700000000002" y="300.02199999999993" as="sourcePoint"/>
                        <mxPoint x="220" y="300" as="targetPoint"/>
                        <mxPoint as="offset"/>
                    </mxGeometry>
                </mxCell>
                <mxCell id="23" value="" style="html=1;points=[];perimeter=orthogonalPerimeter;" parent="1" vertex="1">
                    <mxGeometry x="416" y="180" width="10" height="101" as="geometry"/>
                </mxCell>
                <mxCell id="25" value="addInv" style="text;html=1;align=center;verticalAlign=middle;resizable=0;points=[];autosize=1;strokeColor=none;fillColor=none;" parent="1" vertex="1">
                    <mxGeometry x="375" y="187" width="46" height="18" as="geometry"/>
                </mxCell>
                <mxCell id="27" value="" style="html=1;points=[];perimeter=orthogonalPerimeter;" parent="1" vertex="1">
                    <mxGeometry x="653" y="216" width="10" height="98" as="geometry"/>
                </mxCell>
                <mxCell id="28" value="addInv" style="text;html=1;align=center;verticalAlign=middle;resizable=0;points=[];autosize=1;strokeColor=none;fillColor=none;" parent="1" vertex="1">
                    <mxGeometry x="604" y="228" width="46" height="18" as="geometry"/>
                </mxCell>
                <mxCell id="29" value="简略示意图" style="text;html=1;align=center;verticalAlign=middle;resizable=0;points=[];autosize=1;strokeColor=none;fillColor=none;" parent="1" vertex="1">
                    <mxGeometry x="69" y="55" width="70" height="18" as="geometry"/>
                </mxCell>
                <mxCell id="30" value="" style="html=1;points=[];perimeter=orthogonalPerimeter;" parent="1" vertex="1">
                    <mxGeometry x="416" y="336" width="10" height="138" as="geometry"/>
                </mxCell>
                <mxCell id="31" value="BLOCK&amp;nbsp;&lt;br&gt;if enable PBFT_COMMIT_MSG" style="html=1;verticalAlign=bottom;endArrow=block;entryX=0;entryY=0;" parent="1" target="30" edge="1">
                    <mxGeometry x="-0.1111" relative="1" as="geometry">
                        <mxPoint x="218" y="336" as="sourcePoint"/>
                        <mxPoint as="offset"/>
                    </mxGeometry>
                </mxCell>
                <mxCell id="35" value="" style="html=1;points=[];perimeter=orthogonalPerimeter;" parent="1" vertex="1">
                    <mxGeometry x="409" y="364" width="10" height="27" as="geometry"/>
                </mxCell>
                <mxCell id="36" value="valid &amp;amp; &lt;br&gt;broadcast&lt;br&gt;&amp;amp; process" style="text;html=1;align=center;verticalAlign=middle;resizable=0;points=[];autosize=1;strokeColor=none;fillColor=none;" parent="1" vertex="1">
                    <mxGeometry x="345" y="354.5" width="64" height="46" as="geometry"/>
                </mxCell>
                <mxCell id="38" value="BLOCK" style="html=1;verticalAlign=bottom;startArrow=none;startFill=0;endArrow=open;startSize=6;endSize=8;" parent="1" edge="1">
                    <mxGeometry width="80" relative="1" as="geometry">
                        <mxPoint x="273" y="384" as="sourcePoint"/>
                        <mxPoint x="342" y="384" as="targetPoint"/>
                    </mxGeometry>
                </mxCell>
                <mxCell id="39" value="" style="html=1;points=[];perimeter=orthogonalPerimeter;" parent="1" vertex="1">
                    <mxGeometry x="409" y="417" width="10" height="27" as="geometry"/>
                </mxCell>
                <mxCell id="40" value="process&lt;br&gt;pbft_commit&lt;br&gt;msg" style="text;html=1;align=center;verticalAlign=middle;resizable=0;points=[];autosize=1;strokeColor=none;fillColor=none;" parent="1" vertex="1">
                    <mxGeometry x="334" y="410" width="75" height="46" as="geometry"/>
                </mxCell>
                <mxCell id="42" value="" style="endArrow=open;endFill=1;endSize=12;html=1;" parent="1" edge="1">
                    <mxGeometry width="160" relative="1" as="geometry">
                        <mxPoint x="223" y="433" as="sourcePoint"/>
                        <mxPoint x="336" y="432.57" as="targetPoint"/>
                    </mxGeometry>
                </mxCell>
                <mxCell id="43" value="&lt;font style=&quot;font-size: 10px&quot;&gt;PBFT_COMMIT_MSG&lt;/font&gt;" style="text;html=1;align=center;verticalAlign=middle;resizable=0;points=[];autosize=1;strokeColor=none;fillColor=none;" parent="1" vertex="1">
                    <mxGeometry x="218" y="414" width="110" height="18" as="geometry"/>
                </mxCell>
                <mxCell id="46" value="" style="html=1;verticalAlign=bottom;endArrow=block;fontSize=10;" parent="1" edge="1">
                    <mxGeometry width="80" relative="1" as="geometry">
                        <mxPoint x="414" y="336" as="sourcePoint"/>
                        <mxPoint x="655" y="336" as="targetPoint"/>
                    </mxGeometry>
                </mxCell>
                <mxCell id="47" value="....." style="text;html=1;align=center;verticalAlign=middle;resizable=0;points=[];autosize=1;strokeColor=none;fillColor=none;fontSize=10;" parent="1" vertex="1">
                    <mxGeometry x="629" y="346" width="24" height="16" as="geometry"/>
                </mxCell>
                <mxCell id="48" value="If enable pbft" style="text;html=1;align=center;verticalAlign=middle;resizable=0;points=[];autosize=1;strokeColor=none;fillColor=none;fontSize=10;" parent="1" vertex="1">
                    <mxGeometry x="239" y="435" width="68" height="16" as="geometry"/>
                </mxCell>
                <mxCell id="49" value="INVENTORY_Trxs_Hash" style="html=1;verticalAlign=bottom;startArrow=oval;endArrow=block;startSize=8;rounded=0;entryX=-0.021;entryY=0.029;entryDx=0;entryDy=0;entryPerimeter=0;" parent="1" target="57" edge="1">
                    <mxGeometry relative="1" as="geometry">
                        <mxPoint x="219" y="588" as="sourcePoint"/>
                    </mxGeometry>
                </mxCell>
                <mxCell id="50" value="" style="html=1;points=[];perimeter=orthogonalPerimeter;rounded=0;" parent="1" vertex="1">
                    <mxGeometry x="422" y="549" width="10" height="344" as="geometry"/>
                </mxCell>
                <mxCell id="51" value="Broadcast_trx" style="html=1;verticalAlign=bottom;startArrow=oval;startFill=1;endArrow=block;startSize=8;" parent="1" edge="1">
                    <mxGeometry width="60" relative="1" as="geometry">
                        <mxPoint x="95" y="565" as="sourcePoint"/>
                        <mxPoint x="207" y="565" as="targetPoint"/>
                    </mxGeometry>
                </mxCell>
                <mxCell id="52" value="" style="html=1;points=[];perimeter=orthogonalPerimeter;" parent="1" vertex="1">
                    <mxGeometry x="205" y="550" width="10" height="342" as="geometry"/>
                </mxCell>
                <mxCell id="53" value="NVENTORY_Trxs_Hash" style="html=1;verticalAlign=bottom;startArrow=oval;endArrow=block;startSize=8;entryX=-0.243;entryY=0.087;entryDx=0;entryDy=0;entryPerimeter=0;" parent="1" target="59" edge="1">
                    <mxGeometry x="-0.5339" relative="1" as="geometry">
                        <mxPoint x="218" y="630" as="sourcePoint"/>
                        <mxPoint as="offset"/>
                    </mxGeometry>
                </mxCell>
                <mxCell id="54" value="" style="html=1;points=[];perimeter=orthogonalPerimeter;" parent="1" vertex="1">
                    <mxGeometry x="658" y="557" width="10" height="328" as="geometry"/>
                </mxCell>
                <mxCell id="55" value="FETCH_INV_DATA (trxs)" style="html=1;verticalAlign=bottom;endArrow=open;dashed=1;endSize=8;" parent="1" edge="1">
                    <mxGeometry relative="1" as="geometry">
                        <mxPoint x="419" y="674.9999999999999" as="sourcePoint"/>
                        <mxPoint x="217" y="674.9999999999999" as="targetPoint"/>
                    </mxGeometry>
                </mxCell>
                <mxCell id="56" value="FETCH_INV_DATA (trxs)" style="html=1;verticalAlign=bottom;endArrow=open;dashed=1;endSize=8;exitX=-0.243;exitY=0.939;exitDx=0;exitDy=0;exitPerimeter=0;" parent="1" source="59" edge="1">
                    <mxGeometry x="-0.497" relative="1" as="geometry">
                        <mxPoint x="656" y="714" as="sourcePoint"/>
                        <mxPoint x="220" y="713" as="targetPoint"/>
                        <mxPoint as="offset"/>
                    </mxGeometry>
                </mxCell>
                <mxCell id="57" value="" style="html=1;points=[];perimeter=orthogonalPerimeter;" parent="1" vertex="1">
                    <mxGeometry x="416" y="585" width="10" height="101" as="geometry"/>
                </mxCell>
                <mxCell id="58" value="addInv" style="text;html=1;align=center;verticalAlign=middle;resizable=0;points=[];autosize=1;strokeColor=none;fillColor=none;" parent="1" vertex="1">
                    <mxGeometry x="375" y="592" width="46" height="18" as="geometry"/>
                </mxCell>
                <mxCell id="59" value="" style="html=1;points=[];perimeter=orthogonalPerimeter;" parent="1" vertex="1">
                    <mxGeometry x="653" y="621" width="10" height="98" as="geometry"/>
                </mxCell>
                <mxCell id="60" value="addInv" style="text;html=1;align=center;verticalAlign=middle;resizable=0;points=[];autosize=1;strokeColor=none;fillColor=none;" parent="1" vertex="1">
                    <mxGeometry x="604" y="633" width="46" height="18" as="geometry"/>
                </mxCell>
                <mxCell id="61" value="" style="html=1;points=[];perimeter=orthogonalPerimeter;" parent="1" vertex="1">
                    <mxGeometry x="416" y="741" width="10" height="138" as="geometry"/>
                </mxCell>
                <mxCell id="62" value="TRXS&amp;nbsp;" style="html=1;verticalAlign=bottom;endArrow=block;entryX=0;entryY=0;" parent="1" target="61" edge="1">
                    <mxGeometry relative="1" as="geometry">
                        <mxPoint x="218" y="741" as="sourcePoint"/>
                    </mxGeometry>
                </mxCell>
                <mxCell id="63" value="" style="html=1;points=[];perimeter=orthogonalPerimeter;" parent="1" vertex="1">
                    <mxGeometry x="409" y="769" width="10" height="27" as="geometry"/>
                </mxCell>
                <mxCell id="64" value="check &amp;amp; &lt;br&gt;process&lt;br&gt;&amp;amp; broadcast" style="text;html=1;align=center;verticalAlign=middle;resizable=0;points=[];autosize=1;strokeColor=none;fillColor=none;" parent="1" vertex="1">
                    <mxGeometry x="336" y="759.5" width="74" height="46" as="geometry"/>
                </mxCell>
                <mxCell id="65" value="TRXS" style="html=1;verticalAlign=bottom;startArrow=none;startFill=0;endArrow=open;startSize=6;endSize=8;" parent="1" edge="1">
                    <mxGeometry width="80" relative="1" as="geometry">
                        <mxPoint x="273" y="789" as="sourcePoint"/>
                        <mxPoint x="342" y="789" as="targetPoint"/>
                    </mxGeometry>
                </mxCell>
                <mxCell id="70" value="" style="html=1;verticalAlign=bottom;endArrow=block;fontSize=10;" parent="1" edge="1">
                    <mxGeometry width="80" relative="1" as="geometry">
                        <mxPoint x="414" y="741" as="sourcePoint"/>
                        <mxPoint x="655" y="741" as="targetPoint"/>
                    </mxGeometry>
                </mxCell>
                <mxCell id="73" value="&lt;font style=&quot;font-size: 11px&quot;&gt;TRXS&lt;/font&gt;" style="text;html=1;align=center;verticalAlign=middle;resizable=0;points=[];autosize=1;strokeColor=none;fillColor=none;fontSize=10;" parent="1" vertex="1">
                    <mxGeometry x="510" y="724" width="39" height="17" as="geometry"/>
                </mxCell>
                <mxCell id="74" value="" style="html=1;points=[];perimeter=orthogonalPerimeter;" parent="1" vertex="1">
                    <mxGeometry x="653" y="769" width="10" height="27" as="geometry"/>
                </mxCell>
                <mxCell id="75" value="TRXS" style="html=1;verticalAlign=bottom;startArrow=none;startFill=0;endArrow=open;startSize=6;endSize=8;" parent="1" edge="1">
                    <mxGeometry width="80" relative="1" as="geometry">
                        <mxPoint x="517" y="789" as="sourcePoint"/>
                        <mxPoint x="586" y="789" as="targetPoint"/>
                    </mxGeometry>
                </mxCell>
                <mxCell id="76" value="check &amp;amp; &lt;br&gt;process&lt;br&gt;&amp;amp; broadcast" style="text;html=1;align=center;verticalAlign=middle;resizable=0;points=[];autosize=1;strokeColor=none;fillColor=none;" parent="1" vertex="1">
                    <mxGeometry x="578" y="759.5" width="74" height="46" as="geometry"/>
                </mxCell>
            </root>
        </mxGraphModel>
    </diagram>
</mxfile>